# xmcd
#
# Track frame offsets:
# 150
# 16486
# 31161
# 48784
# 59482
# 73395
# 89888
# 105901
# 122325
# 134551
# 146156
# 159599
# 171617
# 196294
# 214133
# 230222
#
# Disc length: 3259 seconds
#
#
# Revision: 0
# Processed by: cddbd v1.5.1PL2 Copyright (c) Steve Scherf et al.
# Submitted via: FreeRIP 2.944 
#
DISCID=f50cb910
DTITLE=Ricky Skaggs  - Country Gentleman
DYEAR=1998
DGENRE=Country
TTITLE0=Love's Gonna Get You Someday
TTITLE1=I Wonder If I Care as Much
TTITLE2=Love Can't Ever Get Better Than This
TTITLE3=I'm Tired
TTITLE4=(Angel on My Mind)That's Why I'm Walkin'
TTITLE5=Thanks Again
TTITLE6=Old Kind Of Love
TTITLE7=Lovin' Only Me
TTITLE8=Let It Be You
TTITLE9=Heartbreak Hurricane
TTITLE10=Hummingbird
TTITLE11=He Was Onto Something'(So He Made You)
TTITLE12=Restless
TTITLE13=Life's Too Long (To Live Like This )
TTITLE14=Same Ol' Love
TTITLE15=From The Word Love
EXTD=
EXTT0=
EXTT1=
EXTT2=
EXTT3=
EXTT4=
EXTT5=
EXTT6=
EXTT7=
EXTT8=
EXTT9=
EXTT10=
EXTT11=
EXTT12=
EXTT13=
EXTT14=
EXTT15=
PLAYORDER=
